<svg id="Layer_1" data-name="Layer 1" xmlns="http://www.w3.org/2000/svg" viewBox="0 0 129 182.3"><defs><style>.cls-1,.cls-7{fill:#603813;}.cls-1,.cls-8{stroke:#000;}.cls-1,.cls-7,.cls-8,.cls-9{stroke-miterlimit:10;}.cls-2,.cls-3,.cls-9{fill:#754c24;}.cls-2,.cls-3,.cls-7,.cls-9{stroke:#42210b;}.cls-2{stroke-miterlimit:10;}.cls-3{stroke-miterlimit:10;}.cls-4{fill:#001c7f;}.cls-5{isolation:isolate;}.cls-6{fill:blue;}.cls-8{fill:#fff;}</style></defs><rect class="cls-1" x="62.4" y="108.16" width="7.06" height="47.88" rx="1.59"/><rect class="cls-2" x="148.75" y="150.44" width="11.35" height="47.88" rx="1.59" transform="translate(-79.38 23.21) rotate(-13.26)"/><rect class="cls-3" x="33.8" y="161.86" width="47.88" height="11.57" rx="1.59" transform="translate(-163.02 146.77) rotate(-69.7)"/><rect class="cls-4" x="9" y="20.72" width="110" height="98"/><g class="cls-5"><g class="cls-5"><path class="cls-6" d="M62.51,53.49H56.1V52.22h2.62V44.77l-2.45,1.32-.5-1.15L59,43.23h1.21v9h2.28Z" transform="translate(-43.5 -16.86)"/><path class="cls-6" d="M71.31,53.49H64.89V52.22h2.63V44.77l-2.45,1.32-.5-1.15,3.25-1.71H69v9h2.29Z" transform="translate(-43.5 -16.86)"/><path class="cls-6" d="M80.1,53.49H73.69V52.22h2.62V44.77l-2.44,1.32-.5-1.15,3.25-1.71h1.2v9H80.1Z" transform="translate(-43.5 -16.86)"/><path class="cls-6" d="M88.9,53.49H82.49V52.22h2.62V44.77l-2.44,1.32-.5-1.15,3.25-1.71h1.2v9H88.9Z" transform="translate(-43.5 -16.86)"/><path class="cls-6" d="M97.7,53.49H91.28V52.22h2.63V44.77l-2.45,1.32L91,44.94l3.25-1.71h1.21v9H97.7Z" transform="translate(-43.5 -16.86)"/><path class="cls-6" d="M106.49,53.49h-6.41V52.22h2.62V44.77l-2.44,1.32-.5-1.15L103,43.23h1.2v9h2.28Z" transform="translate(-43.5 -16.86)"/><path class="cls-6" d="M115.29,53.49h-6.41V52.22h2.62V44.77l-2.44,1.32-.5-1.15,3.25-1.71H113v9h2.28Z" transform="translate(-43.5 -16.86)"/><path class="cls-6" d="M124.09,53.49h-6.42V52.22h2.63V44.77l-2.45,1.32-.5-1.15,3.25-1.71h1.21v9h2.28Z" transform="translate(-43.5 -16.86)"/><path class="cls-6" d="M133.2,48.38a8.83,8.83,0,0,1-.23,2.14,5,5,0,0,1-.71,1.66,3.44,3.44,0,0,1-1.18,1.07,3.53,3.53,0,0,1-1.66.38,3.66,3.66,0,0,1-1.5-.31,3.16,3.16,0,0,1-1.15-1,4.82,4.82,0,0,1-.73-1.63,9.61,9.61,0,0,1-.26-2.36,8.93,8.93,0,0,1,.24-2.14,5.24,5.24,0,0,1,.71-1.66,3.39,3.39,0,0,1,1.19-1.07,3.46,3.46,0,0,1,1.65-.38,3.58,3.58,0,0,1,1.49.31,3,3,0,0,1,1.15,1A4.82,4.82,0,0,1,133,46,9.56,9.56,0,0,1,133.2,48.38Zm-6,0v.48a3.59,3.59,0,0,0,0,.47l4.32-3.2a3.89,3.89,0,0,0-.3-.72,2.25,2.25,0,0,0-.43-.57,1.7,1.7,0,0,0-.57-.37,1.81,1.81,0,0,0-.72-.13,1.78,1.78,0,0,0-1,.26,2,2,0,0,0-.74.77,4.31,4.31,0,0,0-.47,1.26A8.28,8.28,0,0,0,127.16,48.34Zm4.67.09c0-.18,0-.35,0-.53s0-.34,0-.51l-4.32,3.21a3.54,3.54,0,0,0,.29.75,2.22,2.22,0,0,0,.44.59,1.91,1.91,0,0,0,.58.39,1.86,1.86,0,0,0,.73.13,1.79,1.79,0,0,0,1-.26,2.16,2.16,0,0,0,.74-.76,4.31,4.31,0,0,0,.47-1.26A9.08,9.08,0,0,0,131.83,48.43Z" transform="translate(-43.5 -16.86)"/><path class="cls-6" d="M142,48.38a9.36,9.36,0,0,1-.23,2.14,5.24,5.24,0,0,1-.71,1.66,3.29,3.29,0,0,1-2.85,1.45,3.64,3.64,0,0,1-1.49-.31,3.08,3.08,0,0,1-1.15-1,4.63,4.63,0,0,1-.73-1.63,9.61,9.61,0,0,1-.26-2.36,8.93,8.93,0,0,1,.24-2.14,5,5,0,0,1,.71-1.66,3.36,3.36,0,0,1,1.18-1.07,3.53,3.53,0,0,1,1.66-.38,3.61,3.61,0,0,1,1.49.31,3,3,0,0,1,1.15,1,4.63,4.63,0,0,1,.73,1.63A9.07,9.07,0,0,1,142,48.38Zm-6.05,0c0,.16,0,.32,0,.48a3.59,3.59,0,0,0,0,.47l4.32-3.2a3.89,3.89,0,0,0-.3-.72,2.25,2.25,0,0,0-.43-.57,1.93,1.93,0,0,0-.57-.37,1.81,1.81,0,0,0-.72-.13,1.75,1.75,0,0,0-1,.26,2,2,0,0,0-.74.77,4,4,0,0,0-.47,1.26A8.24,8.24,0,0,0,136,48.34Zm4.68.09c0-.18,0-.35,0-.53s0-.34-.05-.51l-4.32,3.21a4.19,4.19,0,0,0,.3.75,2.19,2.19,0,0,0,.43.59,2,2,0,0,0,.58.39,1.92,1.92,0,0,0,.74.13,1.81,1.81,0,0,0,1-.26,2.14,2.14,0,0,0,.73-.76,4,4,0,0,0,.47-1.26A8.31,8.31,0,0,0,140.63,48.43Z" transform="translate(-43.5 -16.86)"/><path class="cls-6" d="M150.8,48.38a8.81,8.81,0,0,1-.24,2.14,4.82,4.82,0,0,1-.71,1.66,3.36,3.36,0,0,1-1.18,1.07,3.51,3.51,0,0,1-1.66.38,3.58,3.58,0,0,1-1.49-.31,3.08,3.08,0,0,1-1.15-1,4.82,4.82,0,0,1-.74-1.63,9.65,9.65,0,0,1-.25-2.36,9.49,9.49,0,0,1,.23-2.14,5,5,0,0,1,.72-1.66,3.36,3.36,0,0,1,1.18-1.07,3.51,3.51,0,0,1,1.66-.38,3.64,3.64,0,0,1,1.49.31,3,3,0,0,1,1.15,1,4.82,4.82,0,0,1,.73,1.63A9.53,9.53,0,0,1,150.8,48.38Zm-6.05,0c0,.16,0,.32,0,.48s0,.32,0,.47l4.32-3.2a3.87,3.87,0,0,0-.29-.72,2.51,2.51,0,0,0-.43-.57,1.93,1.93,0,0,0-.57-.37,1.88,1.88,0,0,0-.72-.13,1.79,1.79,0,0,0-1,.26,2.11,2.11,0,0,0-.74.77,4,4,0,0,0-.46,1.26A8.24,8.24,0,0,0,144.75,48.34Zm4.67.09a4.7,4.7,0,0,0,0-.53c0-.17,0-.34,0-.51L145,50.6a4.19,4.19,0,0,0,.3.75,2.19,2.19,0,0,0,.43.59,1.91,1.91,0,0,0,.58.39,1.88,1.88,0,0,0,.74.13,1.78,1.78,0,0,0,1-.26,2.08,2.08,0,0,0,.74-.76,4.31,4.31,0,0,0,.47-1.26A8.35,8.35,0,0,0,149.42,48.43Z" transform="translate(-43.5 -16.86)"/><path class="cls-6" d="M159.6,48.38a8.81,8.81,0,0,1-.24,2.14,5,5,0,0,1-.71,1.66,3.44,3.44,0,0,1-1.18,1.07,3.53,3.53,0,0,1-1.66.38,3.66,3.66,0,0,1-1.5-.31,3,3,0,0,1-1.14-1,4.64,4.64,0,0,1-.74-1.63,9.61,9.61,0,0,1-.26-2.36,8.93,8.93,0,0,1,.24-2.14,5.24,5.24,0,0,1,.71-1.66,3.39,3.39,0,0,1,1.19-1.07,3.46,3.46,0,0,1,1.65-.38,3.58,3.58,0,0,1,1.49.31,2.94,2.94,0,0,1,1.15,1,4.64,4.64,0,0,1,.74,1.63A9.53,9.53,0,0,1,159.6,48.38Zm-6,0v.48a3.59,3.59,0,0,0,0,.47l4.32-3.2a3.89,3.89,0,0,0-.3-.72,2.25,2.25,0,0,0-.43-.57,1.7,1.7,0,0,0-.57-.37,1.81,1.81,0,0,0-.72-.13,1.78,1.78,0,0,0-1,.26,2,2,0,0,0-.74.77,4.31,4.31,0,0,0-.47,1.26A8.28,8.28,0,0,0,153.55,48.34Zm4.67.09c0-.18,0-.35,0-.53s0-.34,0-.51l-4.32,3.21a4.17,4.17,0,0,0,.29.75,2.22,2.22,0,0,0,.44.59,1.91,1.91,0,0,0,.58.39,1.86,1.86,0,0,0,.73.13,1.79,1.79,0,0,0,1-.26,2.16,2.16,0,0,0,.74-.76,4.31,4.31,0,0,0,.47-1.26A8.35,8.35,0,0,0,158.22,48.43Z" transform="translate(-43.5 -16.86)"/></g><g class="cls-5"><path class="cls-6" d="M62.83,67.58a9.42,9.42,0,0,1-.23,2.14,5,5,0,0,1-.72,1.66,3.36,3.36,0,0,1-1.18,1.07,3.48,3.48,0,0,1-1.66.38,3.61,3.61,0,0,1-1.49-.31,3.08,3.08,0,0,1-1.15-1,4.6,4.6,0,0,1-.73-1.64,9,9,0,0,1-.26-2.35,8.93,8.93,0,0,1,.24-2.14,4.82,4.82,0,0,1,.71-1.66,3.26,3.26,0,0,1,1.18-1.07,3.51,3.51,0,0,1,1.66-.38,3.64,3.64,0,0,1,1.49.31,3.08,3.08,0,0,1,1.15,1,4.87,4.87,0,0,1,.73,1.64A9.53,9.53,0,0,1,62.83,67.58Zm-6,0c0,.16,0,.32,0,.48s0,.32,0,.47l4.32-3.2a3.29,3.29,0,0,0-.29-.72,2.51,2.51,0,0,0-.43-.57,1.93,1.93,0,0,0-.57-.37,2,2,0,0,0-1.69.12,2.17,2.17,0,0,0-.73.77A4.2,4.2,0,0,0,57,65.79,8.24,8.24,0,0,0,56.78,67.54Zm4.67.09c0-.18,0-.35,0-.53s0-.34,0-.51L57.07,69.8a4.19,4.19,0,0,0,.3.75,2.19,2.19,0,0,0,.43.59,1.72,1.72,0,0,0,.58.38,1.75,1.75,0,0,0,.74.14,1.78,1.78,0,0,0,1-.26,2.08,2.08,0,0,0,.74-.76,4.31,4.31,0,0,0,.47-1.26A8.35,8.35,0,0,0,61.45,67.63Z" transform="translate(-43.5 -16.86)"/><path class="cls-6" d="M71.31,72.68H64.89V71.42h2.63V64l-2.45,1.32-.5-1.15,3.25-1.71H69v9h2.29Z" transform="translate(-43.5 -16.86)"/><path class="cls-6" d="M80.42,67.58a8.89,8.89,0,0,1-.23,2.14,5,5,0,0,1-.71,1.66,3.39,3.39,0,0,1-1.19,1.07,3.48,3.48,0,0,1-1.66.38,3.64,3.64,0,0,1-1.49-.31,3.08,3.08,0,0,1-1.15-1,4.78,4.78,0,0,1-.73-1.64A9.47,9.47,0,0,1,73,67.58a8.93,8.93,0,0,1,.24-2.14A5.24,5.24,0,0,1,74,63.78a3.35,3.35,0,0,1,1.18-1.07,3.53,3.53,0,0,1,1.66-.38,3.61,3.61,0,0,1,1.49.31,3.08,3.08,0,0,1,1.15,1,4.88,4.88,0,0,1,.74,1.64A9.56,9.56,0,0,1,80.42,67.58Zm-6,0V68a3.59,3.59,0,0,0,0,.47l4.32-3.2a3.89,3.89,0,0,0-.3-.72A2.25,2.25,0,0,0,78,64a1.93,1.93,0,0,0-.57-.37,1.81,1.81,0,0,0-.72-.13,1.86,1.86,0,0,0-1,.25,2.19,2.19,0,0,0-.74.77,4.49,4.49,0,0,0-.47,1.27A8.28,8.28,0,0,0,74.38,67.54Zm4.67.09c0-.18,0-.35,0-.53s0-.34,0-.51L74.67,69.8a3.54,3.54,0,0,0,.29.75,2.22,2.22,0,0,0,.44.59,1.68,1.68,0,0,0,.57.38,2,2,0,0,0,1.71-.12,2.16,2.16,0,0,0,.74-.76,4.31,4.31,0,0,0,.46-1.26A8.31,8.31,0,0,0,79.05,67.63Z" transform="translate(-43.5 -16.86)"/><path class="cls-6" d="M88.9,72.68H82.49V71.42h2.62V64l-2.44,1.32-.5-1.15,3.25-1.71h1.2v9H88.9Z" transform="translate(-43.5 -16.86)"/><path class="cls-6" d="M97.7,72.68H91.28V71.42h2.63V64l-2.45,1.32L91,64.14l3.25-1.71h1.21v9H97.7Z" transform="translate(-43.5 -16.86)"/><path class="cls-6" d="M106.49,72.68h-6.41V71.42h2.62V64l-2.44,1.32-.5-1.15L103,62.43h1.2v9h2.28Z" transform="translate(-43.5 -16.86)"/><path class="cls-6" d="M115.61,67.58a9.42,9.42,0,0,1-.23,2.14,5.24,5.24,0,0,1-.71,1.66,3.29,3.29,0,0,1-2.85,1.45,3.61,3.61,0,0,1-1.49-.31,3.08,3.08,0,0,1-1.15-1,4.6,4.6,0,0,1-.73-1.64,9,9,0,0,1-.26-2.35,8.93,8.93,0,0,1,.24-2.14,5,5,0,0,1,.71-1.66,3.26,3.26,0,0,1,1.18-1.07,3.53,3.53,0,0,1,1.66-.38,3.64,3.64,0,0,1,1.49.31,3.08,3.08,0,0,1,1.15,1,4.68,4.68,0,0,1,.73,1.64A9.53,9.53,0,0,1,115.61,67.58Zm-6,0c0,.16,0,.32,0,.48a3.59,3.59,0,0,0,0,.47l4.32-3.2a3.89,3.89,0,0,0-.3-.72,2.25,2.25,0,0,0-.43-.57,1.93,1.93,0,0,0-.57-.37,2,2,0,0,0-1.68.12,2.19,2.19,0,0,0-.74.77,4.2,4.2,0,0,0-.47,1.27A8.24,8.24,0,0,0,109.56,67.54Zm4.68.09c0-.18,0-.35,0-.53s0-.34,0-.51l-4.32,3.21a4.19,4.19,0,0,0,.3.75,2.19,2.19,0,0,0,.43.59,1.82,1.82,0,0,0,.58.38,2,2,0,0,0,1.7-.12,2.08,2.08,0,0,0,.74-.76,4,4,0,0,0,.47-1.26A8.31,8.31,0,0,0,114.24,67.63Z" transform="translate(-43.5 -16.86)"/><path class="cls-6" d="M124.41,67.58a8.87,8.87,0,0,1-.24,2.14,4.82,4.82,0,0,1-.71,1.66,3.44,3.44,0,0,1-1.18,1.07,3.51,3.51,0,0,1-1.66.38,3.58,3.58,0,0,1-1.49-.31,3.08,3.08,0,0,1-1.15-1,4.79,4.79,0,0,1-.74-1.64,9.51,9.51,0,0,1-.25-2.35,9,9,0,0,1,.23-2.14,5,5,0,0,1,.72-1.66,3.19,3.19,0,0,1,1.18-1.07,3.46,3.46,0,0,1,1.65-.38,3.66,3.66,0,0,1,1.5.31,3.16,3.16,0,0,1,1.15,1,4.87,4.87,0,0,1,.73,1.64A9.53,9.53,0,0,1,124.41,67.58Zm-6,0V68l0,.47,4.32-3.2a3.87,3.87,0,0,0-.29-.72A2.51,2.51,0,0,0,122,64a1.93,1.93,0,0,0-.57-.37,2,2,0,0,0-1.69.12,2.28,2.28,0,0,0-.74.77,4.49,4.49,0,0,0-.47,1.27A9,9,0,0,0,118.36,67.54Zm4.67.09a4.7,4.7,0,0,0,0-.53c0-.17,0-.34,0-.51l-4.32,3.21a4.19,4.19,0,0,0,.3.75,2.19,2.19,0,0,0,.43.59,1.85,1.85,0,0,0,1.32.52,1.78,1.78,0,0,0,1-.26,2.08,2.08,0,0,0,.74-.76,4.31,4.31,0,0,0,.47-1.26A8.35,8.35,0,0,0,123,67.63Z" transform="translate(-43.5 -16.86)"/><path class="cls-6" d="M132.88,72.68h-6.41V71.42h2.63V64l-2.45,1.32-.5-1.15,3.25-1.71h1.2v9h2.28Z" transform="translate(-43.5 -16.86)"/><path class="cls-6" d="M142,67.58a9.42,9.42,0,0,1-.23,2.14,5.24,5.24,0,0,1-.71,1.66,3.29,3.29,0,0,1-2.85,1.45,3.64,3.64,0,0,1-1.49-.31,3.08,3.08,0,0,1-1.15-1,4.6,4.6,0,0,1-.73-1.64,9.47,9.47,0,0,1-.26-2.35,8.93,8.93,0,0,1,.24-2.14,5,5,0,0,1,.71-1.66,3.26,3.26,0,0,1,1.18-1.07,3.53,3.53,0,0,1,1.66-.38,3.61,3.61,0,0,1,1.49.31,3.08,3.08,0,0,1,1.15,1,4.68,4.68,0,0,1,.73,1.64A9.07,9.07,0,0,1,142,67.58Zm-6.05,0c0,.16,0,.32,0,.48a3.59,3.59,0,0,0,0,.47l4.32-3.2a3.89,3.89,0,0,0-.3-.72,2.25,2.25,0,0,0-.43-.57,1.93,1.93,0,0,0-.57-.37,1.81,1.81,0,0,0-.72-.13,1.83,1.83,0,0,0-1,.25,2.19,2.19,0,0,0-.74.77,4.2,4.2,0,0,0-.47,1.27A8.24,8.24,0,0,0,136,67.54Zm4.68.09c0-.18,0-.35,0-.53s0-.34-.05-.51l-4.32,3.21a4.19,4.19,0,0,0,.3.75,2.19,2.19,0,0,0,.43.59,1.82,1.82,0,0,0,.58.38,1.75,1.75,0,0,0,.74.14,1.81,1.81,0,0,0,1-.26,2.14,2.14,0,0,0,.73-.76,4,4,0,0,0,.47-1.26A8.31,8.31,0,0,0,140.63,67.63Z" transform="translate(-43.5 -16.86)"/><path class="cls-6" d="M150.48,72.68h-6.42V71.42h2.63V64l-2.45,1.32-.5-1.15L147,62.43h1.21v9h2.28Z" transform="translate(-43.5 -16.86)"/><path class="cls-6" d="M159.6,67.58a8.87,8.87,0,0,1-.24,2.14,5,5,0,0,1-.71,1.66,3.44,3.44,0,0,1-1.18,1.07,3.53,3.53,0,0,1-1.66.38,3.66,3.66,0,0,1-1.5-.31,3,3,0,0,1-1.14-1,4.61,4.61,0,0,1-.74-1.64,9.47,9.47,0,0,1-.26-2.35,8.93,8.93,0,0,1,.24-2.14,5.24,5.24,0,0,1,.71-1.66,3.29,3.29,0,0,1,1.19-1.07,3.46,3.46,0,0,1,1.65-.38,3.58,3.58,0,0,1,1.49.31,3,3,0,0,1,1.15,1,4.69,4.69,0,0,1,.74,1.64A9.53,9.53,0,0,1,159.6,67.58Zm-6,0V68a3.59,3.59,0,0,0,0,.47l4.32-3.2a3.89,3.89,0,0,0-.3-.72,2.25,2.25,0,0,0-.43-.57,1.7,1.7,0,0,0-.57-.37,1.81,1.81,0,0,0-.72-.13,1.86,1.86,0,0,0-1,.25,2.19,2.19,0,0,0-.74.77,4.49,4.49,0,0,0-.47,1.27A8.28,8.28,0,0,0,153.55,67.54Zm4.67.09c0-.18,0-.35,0-.53s0-.34,0-.51l-4.32,3.21a4.17,4.17,0,0,0,.29.75,2.22,2.22,0,0,0,.44.59,1.72,1.72,0,0,0,.58.38,1.7,1.7,0,0,0,.73.14,1.79,1.79,0,0,0,1-.26,2.16,2.16,0,0,0,.74-.76,4.31,4.31,0,0,0,.47-1.26A8.35,8.35,0,0,0,158.22,67.63Z" transform="translate(-43.5 -16.86)"/></g><g class="cls-5"><path class="cls-6" d="M62.83,86.78a9.42,9.42,0,0,1-.23,2.14,5,5,0,0,1-.72,1.66,3.36,3.36,0,0,1-1.18,1.07A3.48,3.48,0,0,1,59,92a3.61,3.61,0,0,1-1.49-.31,3.08,3.08,0,0,1-1.15-1,4.6,4.6,0,0,1-.73-1.64,9,9,0,0,1-.26-2.35,8.93,8.93,0,0,1,.24-2.14A4.82,4.82,0,0,1,56.36,83a3.36,3.36,0,0,1,1.18-1.07,3.51,3.51,0,0,1,1.66-.38,3.64,3.64,0,0,1,1.49.31,3.08,3.08,0,0,1,1.15,1,4.87,4.87,0,0,1,.73,1.64A9.53,9.53,0,0,1,62.83,86.78Zm-6,0c0,.16,0,.32,0,.48s0,.32,0,.47l4.32-3.2a3.29,3.29,0,0,0-.29-.72,2.51,2.51,0,0,0-.43-.57,1.93,1.93,0,0,0-.57-.37,1.88,1.88,0,0,0-.72-.13,1.79,1.79,0,0,0-1,.26,2.06,2.06,0,0,0-.73.76A4.2,4.2,0,0,0,57,85,8.24,8.24,0,0,0,56.78,86.74Zm4.67.09c0-.18,0-.35,0-.53s0-.34,0-.51L57.07,89a4.19,4.19,0,0,0,.3.75,2.19,2.19,0,0,0,.43.59,1.72,1.72,0,0,0,.58.38,1.75,1.75,0,0,0,.74.14,1.78,1.78,0,0,0,1-.26,2.08,2.08,0,0,0,.74-.76,4.31,4.31,0,0,0,.47-1.26A8.35,8.35,0,0,0,61.45,86.83Z" transform="translate(-43.5 -16.86)"/><path class="cls-6" d="M71.31,91.88H64.89V90.62h2.63V83.17l-2.45,1.32-.5-1.15,3.25-1.71H69v9h2.29Z" transform="translate(-43.5 -16.86)"/><path class="cls-6" d="M80.42,86.78a8.89,8.89,0,0,1-.23,2.14,5,5,0,0,1-.71,1.66,3.39,3.39,0,0,1-1.19,1.07,3.48,3.48,0,0,1-1.66.38,3.64,3.64,0,0,1-1.49-.31,3.08,3.08,0,0,1-1.15-1,4.78,4.78,0,0,1-.73-1.64A9.47,9.47,0,0,1,73,86.78a8.93,8.93,0,0,1,.24-2.14A5.24,5.24,0,0,1,74,83a3.44,3.44,0,0,1,1.18-1.07,3.53,3.53,0,0,1,1.66-.38,3.61,3.61,0,0,1,1.49.31,3.08,3.08,0,0,1,1.15,1,4.88,4.88,0,0,1,.74,1.64A9.56,9.56,0,0,1,80.42,86.78Zm-6,0v.48a3.59,3.59,0,0,0,0,.47l4.32-3.2a3.89,3.89,0,0,0-.3-.72A2.25,2.25,0,0,0,78,83.2a1.93,1.93,0,0,0-.57-.37,1.81,1.81,0,0,0-.72-.13,1.78,1.78,0,0,0-1,.26,2.08,2.08,0,0,0-.74.76A4.49,4.49,0,0,0,74.54,85,8.28,8.28,0,0,0,74.38,86.74Zm4.67.09c0-.18,0-.35,0-.53s0-.34,0-.51L74.67,89a3.54,3.54,0,0,0,.29.75,2.22,2.22,0,0,0,.44.59,1.68,1.68,0,0,0,.57.38,2,2,0,0,0,1.71-.12,2.16,2.16,0,0,0,.74-.76,4.31,4.31,0,0,0,.46-1.26A8.31,8.31,0,0,0,79.05,86.83Z" transform="translate(-43.5 -16.86)"/><path class="cls-6" d="M88.9,91.88H82.49V90.62h2.62V83.17l-2.44,1.32-.5-1.15,3.25-1.71h1.2v9H88.9Z" transform="translate(-43.5 -16.86)"/><path class="cls-6" d="M98,86.78a8.87,8.87,0,0,1-.24,2.14,4.82,4.82,0,0,1-.71,1.66,3.44,3.44,0,0,1-1.18,1.07,3.51,3.51,0,0,1-1.66.38,3.58,3.58,0,0,1-1.49-.31,3,3,0,0,1-1.15-1,4.61,4.61,0,0,1-.74-1.64,9.51,9.51,0,0,1-.25-2.35,9,9,0,0,1,.23-2.14A5.24,5.24,0,0,1,91.54,83a3.39,3.39,0,0,1,1.19-1.07,3.46,3.46,0,0,1,1.65-.38,3.66,3.66,0,0,1,1.5.31,3,3,0,0,1,1.14,1,4.69,4.69,0,0,1,.74,1.64A9.53,9.53,0,0,1,98,86.78Zm-6,0v.48l0,.47,4.32-3.2a3.89,3.89,0,0,0-.3-.72,2.48,2.48,0,0,0-.42-.57,1.85,1.85,0,0,0-.58-.37,2,2,0,0,0-1.68.13,2.16,2.16,0,0,0-.74.76A4.49,4.49,0,0,0,92.13,85,8.28,8.28,0,0,0,92,86.74Zm4.67.09a4.7,4.7,0,0,0,0-.53c0-.17,0-.34,0-.51L92.26,89a4.19,4.19,0,0,0,.3.75,2.19,2.19,0,0,0,.43.59,1.85,1.85,0,0,0,1.32.52,1.78,1.78,0,0,0,1-.26,2.08,2.08,0,0,0,.74-.76,4.31,4.31,0,0,0,.47-1.26A8.35,8.35,0,0,0,96.64,86.83Z" transform="translate(-43.5 -16.86)"/><path class="cls-6" d="M106.81,86.78a8.89,8.89,0,0,1-.23,2.14,5,5,0,0,1-.71,1.66,3.44,3.44,0,0,1-1.18,1.07A3.55,3.55,0,0,1,103,92a3.64,3.64,0,0,1-1.49-.31,3.08,3.08,0,0,1-1.15-1,4.78,4.78,0,0,1-.73-1.64,9.47,9.47,0,0,1-.26-2.35,8.93,8.93,0,0,1,.24-2.14,5.24,5.24,0,0,1,.71-1.66,3.44,3.44,0,0,1,1.18-1.07,3.53,3.53,0,0,1,1.66-.38,3.58,3.58,0,0,1,1.49.31,3.08,3.08,0,0,1,1.15,1,4.88,4.88,0,0,1,.74,1.64A9.56,9.56,0,0,1,106.81,86.78Zm-6,0v.48a3.59,3.59,0,0,0,0,.47l4.32-3.2a3.89,3.89,0,0,0-.3-.72,2.25,2.25,0,0,0-.43-.57,1.7,1.7,0,0,0-.57-.37,1.81,1.81,0,0,0-.72-.13,1.78,1.78,0,0,0-1,.26,2.08,2.08,0,0,0-.74.76,4.49,4.49,0,0,0-.47,1.27A8.28,8.28,0,0,0,100.77,86.74Zm4.67.09c0-.18,0-.35,0-.53s0-.34,0-.51L101.06,89a3.54,3.54,0,0,0,.29.75,2.22,2.22,0,0,0,.44.59,1.92,1.92,0,0,0,2.28.26,2.16,2.16,0,0,0,.74-.76,4,4,0,0,0,.46-1.26A8.31,8.31,0,0,0,105.44,86.83Z" transform="translate(-43.5 -16.86)"/><path class="cls-6" d="M115.29,91.88h-6.41V90.62h2.62V83.17l-2.44,1.32-.5-1.15,3.25-1.71H113v9h2.28Z" transform="translate(-43.5 -16.86)"/><path class="cls-6" d="M124.41,86.78a8.87,8.87,0,0,1-.24,2.14,4.82,4.82,0,0,1-.71,1.66,3.44,3.44,0,0,1-1.18,1.07,3.51,3.51,0,0,1-1.66.38,3.58,3.58,0,0,1-1.49-.31,3.08,3.08,0,0,1-1.15-1,4.79,4.79,0,0,1-.74-1.64,9.51,9.51,0,0,1-.25-2.35,9,9,0,0,1,.23-2.14,5,5,0,0,1,.72-1.66,3.27,3.27,0,0,1,1.18-1.07,3.46,3.46,0,0,1,1.65-.38,3.66,3.66,0,0,1,1.5.31,3.16,3.16,0,0,1,1.15,1,4.87,4.87,0,0,1,.73,1.64A9.53,9.53,0,0,1,124.41,86.78Zm-6,0v.48l0,.47,4.32-3.2a3.87,3.87,0,0,0-.29-.72,2.51,2.51,0,0,0-.43-.57,1.93,1.93,0,0,0-.57-.37,1.88,1.88,0,0,0-.72-.13,1.79,1.79,0,0,0-1,.26,2.16,2.16,0,0,0-.74.76,4.49,4.49,0,0,0-.47,1.27A9,9,0,0,0,118.36,86.74Zm4.67.09a4.7,4.7,0,0,0,0-.53c0-.17,0-.34,0-.51L118.65,89a4.19,4.19,0,0,0,.3.75,2.19,2.19,0,0,0,.43.59,1.85,1.85,0,0,0,1.32.52,1.78,1.78,0,0,0,1-.26,2.08,2.08,0,0,0,.74-.76,4.31,4.31,0,0,0,.47-1.26A8.35,8.35,0,0,0,123,86.83Z" transform="translate(-43.5 -16.86)"/><path class="cls-6" d="M132.88,91.88h-6.41V90.62h2.63V83.17l-2.45,1.32-.5-1.15,3.25-1.71h1.2v9h2.28Z" transform="translate(-43.5 -16.86)"/><path class="cls-6" d="M142,86.78a9.42,9.42,0,0,1-.23,2.14,5.24,5.24,0,0,1-.71,1.66A3.29,3.29,0,0,1,138.21,92a3.64,3.64,0,0,1-1.49-.31,3.08,3.08,0,0,1-1.15-1,4.6,4.6,0,0,1-.73-1.64,9.47,9.47,0,0,1-.26-2.35,8.93,8.93,0,0,1,.24-2.14,5,5,0,0,1,.71-1.66,3.36,3.36,0,0,1,1.18-1.07,3.53,3.53,0,0,1,1.66-.38,3.61,3.61,0,0,1,1.49.31,3.08,3.08,0,0,1,1.15,1,4.68,4.68,0,0,1,.73,1.64A9.07,9.07,0,0,1,142,86.78Zm-6.05,0c0,.16,0,.32,0,.48a3.59,3.59,0,0,0,0,.47l4.32-3.2a3.89,3.89,0,0,0-.3-.72,2.25,2.25,0,0,0-.43-.57,1.93,1.93,0,0,0-.57-.37,1.81,1.81,0,0,0-.72-.13,1.75,1.75,0,0,0-1,.26,2.08,2.08,0,0,0-.74.76,4.2,4.2,0,0,0-.47,1.27A8.24,8.24,0,0,0,136,86.74Zm4.68.09c0-.18,0-.35,0-.53s0-.34-.05-.51L136.24,89a4.19,4.19,0,0,0,.3.75,2.19,2.19,0,0,0,.43.59,1.82,1.82,0,0,0,.58.38,1.75,1.75,0,0,0,.74.14,1.81,1.81,0,0,0,1-.26,2.14,2.14,0,0,0,.73-.76,4,4,0,0,0,.47-1.26A8.31,8.31,0,0,0,140.63,86.83Z" transform="translate(-43.5 -16.86)"/><path class="cls-6" d="M150.8,86.78a8.87,8.87,0,0,1-.24,2.14,4.82,4.82,0,0,1-.71,1.66,3.36,3.36,0,0,1-1.18,1.07A3.51,3.51,0,0,1,147,92a3.58,3.58,0,0,1-1.49-.31,3.08,3.08,0,0,1-1.15-1,4.79,4.79,0,0,1-.74-1.64,10.62,10.62,0,0,1,0-4.49,5,5,0,0,1,.72-1.66,3.36,3.36,0,0,1,1.18-1.07,3.51,3.51,0,0,1,1.66-.38,3.64,3.64,0,0,1,1.49.31,3.08,3.08,0,0,1,1.15,1,4.87,4.87,0,0,1,.73,1.64A9.53,9.53,0,0,1,150.8,86.78Zm-6.05,0c0,.16,0,.32,0,.48s0,.32,0,.47l4.32-3.2a3.87,3.87,0,0,0-.29-.72,2.51,2.51,0,0,0-.43-.57,1.93,1.93,0,0,0-.57-.37,1.88,1.88,0,0,0-.72-.13,1.79,1.79,0,0,0-1,.26,2.16,2.16,0,0,0-.74.76,4.2,4.2,0,0,0-.46,1.27A8.24,8.24,0,0,0,144.75,86.74Zm4.67.09a4.7,4.7,0,0,0,0-.53c0-.17,0-.34,0-.51L145,89a4.19,4.19,0,0,0,.3.75,2.19,2.19,0,0,0,.43.59,1.85,1.85,0,0,0,1.32.52,1.78,1.78,0,0,0,1-.26,2.08,2.08,0,0,0,.74-.76,4.31,4.31,0,0,0,.47-1.26A8.35,8.35,0,0,0,149.42,86.83Z" transform="translate(-43.5 -16.86)"/><path class="cls-6" d="M159.27,91.88h-6.41V90.62h2.63V83.17L153,84.49l-.5-1.15,3.25-1.71H157v9h2.28Z" transform="translate(-43.5 -16.86)"/></g><g class="cls-5"><path class="cls-6" d="M62.83,106a9.42,9.42,0,0,1-.23,2.14,5,5,0,0,1-.72,1.66,3.36,3.36,0,0,1-1.18,1.07,3.48,3.48,0,0,1-1.66.38,3.61,3.61,0,0,1-1.49-.31,3.08,3.08,0,0,1-1.15-1,4.63,4.63,0,0,1-.73-1.63,9.15,9.15,0,0,1-.26-2.36,8.93,8.93,0,0,1,.24-2.14,4.82,4.82,0,0,1,.71-1.66,3.36,3.36,0,0,1,1.18-1.07,3.51,3.51,0,0,1,1.66-.38,3.64,3.64,0,0,1,1.49.31,3,3,0,0,1,1.15,1,4.73,4.73,0,0,1,.73,1.63A9.53,9.53,0,0,1,62.83,106Zm-6,0c0,.16,0,.32,0,.48s0,.32,0,.47l4.32-3.2a3.29,3.29,0,0,0-.29-.72,2.51,2.51,0,0,0-.43-.57,1.93,1.93,0,0,0-.57-.37,1.88,1.88,0,0,0-.72-.13,1.79,1.79,0,0,0-1,.26,2.06,2.06,0,0,0-.73.76,4.2,4.2,0,0,0-.47,1.27A8.24,8.24,0,0,0,56.78,105.94Zm4.67.09c0-.18,0-.35,0-.53s0-.34,0-.51l-4.32,3.21a4.19,4.19,0,0,0,.3.75,2.19,2.19,0,0,0,.43.59,1.72,1.72,0,0,0,.58.38,1.75,1.75,0,0,0,.74.14,1.78,1.78,0,0,0,1-.26,2.08,2.08,0,0,0,.74-.76,4.31,4.31,0,0,0,.47-1.26A8.35,8.35,0,0,0,61.45,106Z" transform="translate(-43.5 -16.86)"/><path class="cls-6" d="M71.63,106a8.87,8.87,0,0,1-.24,2.14,4.82,4.82,0,0,1-.71,1.66,3.44,3.44,0,0,1-1.18,1.07,3.51,3.51,0,0,1-1.66.38,3.58,3.58,0,0,1-1.49-.31,3,3,0,0,1-1.15-1,4.64,4.64,0,0,1-.74-1.63A9.61,9.61,0,0,1,64.2,106a8.93,8.93,0,0,1,.24-2.14,5.24,5.24,0,0,1,.71-1.66,3.39,3.39,0,0,1,1.19-1.07,3.46,3.46,0,0,1,1.65-.38,3.66,3.66,0,0,1,1.5.31,3,3,0,0,1,1.14,1,4.56,4.56,0,0,1,.74,1.63A9.53,9.53,0,0,1,71.63,106Zm-6,0v.48l0,.47,4.32-3.2a3.89,3.89,0,0,0-.3-.72,2.25,2.25,0,0,0-.43-.57,1.7,1.7,0,0,0-.57-.37,2,2,0,0,0-1.68.13,2.16,2.16,0,0,0-.74.76,4.49,4.49,0,0,0-.47,1.27A8.28,8.28,0,0,0,65.58,105.94Zm4.67.09c0-.18,0-.35,0-.53s0-.34,0-.51l-4.32,3.21a4.19,4.19,0,0,0,.3.75,2.19,2.19,0,0,0,.43.59,1.85,1.85,0,0,0,1.32.52,1.78,1.78,0,0,0,1-.26,2.08,2.08,0,0,0,.74-.76,4.31,4.31,0,0,0,.47-1.26A8.35,8.35,0,0,0,70.25,106Z" transform="translate(-43.5 -16.86)"/><path class="cls-6" d="M80.1,111.09H73.69v-1.27h2.62v-7.45l-2.44,1.32-.5-1.15,3.25-1.71h1.2v9H80.1Z" transform="translate(-43.5 -16.86)"/><path class="cls-6" d="M89.22,106a9.42,9.42,0,0,1-.23,2.14,5,5,0,0,1-.72,1.66,3.36,3.36,0,0,1-1.18,1.07,3.48,3.48,0,0,1-1.66.38,3.61,3.61,0,0,1-1.49-.31,3.08,3.08,0,0,1-1.15-1,4.63,4.63,0,0,1-.73-1.63A9.15,9.15,0,0,1,81.8,106a8.93,8.93,0,0,1,.24-2.14,5,5,0,0,1,.71-1.66,3.36,3.36,0,0,1,1.18-1.07,3.51,3.51,0,0,1,1.66-.38,3.64,3.64,0,0,1,1.49.31,3,3,0,0,1,1.15,1,4.55,4.55,0,0,1,.73,1.63A9.53,9.53,0,0,1,89.22,106Zm-6,0c0,.16,0,.32,0,.48s0,.32,0,.47l4.32-3.2a3.29,3.29,0,0,0-.29-.72,2.51,2.51,0,0,0-.43-.57,1.93,1.93,0,0,0-.57-.37,1.88,1.88,0,0,0-.72-.13,1.79,1.79,0,0,0-1,.26,2.14,2.14,0,0,0-.73.76,4.2,4.2,0,0,0-.47,1.27A8.24,8.24,0,0,0,83.17,105.94Zm4.68.09c0-.18,0-.35,0-.53s0-.34,0-.51l-4.32,3.21a4.19,4.19,0,0,0,.3.75,2.19,2.19,0,0,0,.43.59,1.72,1.72,0,0,0,.58.38,2,2,0,0,0,1.7-.12,2.08,2.08,0,0,0,.74-.76,4,4,0,0,0,.47-1.26A8.31,8.31,0,0,0,87.85,106Z" transform="translate(-43.5 -16.86)"/><path class="cls-6" d="M97.7,111.09H91.28v-1.27h2.63v-7.45l-2.45,1.32-.5-1.15,3.25-1.71h1.21v9H97.7Z" transform="translate(-43.5 -16.86)"/><path class="cls-6" d="M106.49,111.09h-6.41v-1.27h2.62v-7.45l-2.44,1.32-.5-1.15,3.25-1.71h1.2v9h2.28Z" transform="translate(-43.5 -16.86)"/><path class="cls-6" d="M115.61,106a9.42,9.42,0,0,1-.23,2.14,5.24,5.24,0,0,1-.71,1.66,3.29,3.29,0,0,1-2.85,1.45,3.61,3.61,0,0,1-1.49-.31,3.08,3.08,0,0,1-1.15-1,4.63,4.63,0,0,1-.73-1.63,9.15,9.15,0,0,1-.26-2.36,8.93,8.93,0,0,1,.24-2.14,5,5,0,0,1,.71-1.66,3.36,3.36,0,0,1,1.18-1.07,3.53,3.53,0,0,1,1.66-.38,3.64,3.64,0,0,1,1.49.31,3,3,0,0,1,1.15,1,4.55,4.55,0,0,1,.73,1.63A9.53,9.53,0,0,1,115.61,106Zm-6,0c0,.16,0,.32,0,.48a3.59,3.59,0,0,0,0,.47l4.32-3.2a3.89,3.89,0,0,0-.3-.72,2.25,2.25,0,0,0-.43-.57,1.93,1.93,0,0,0-.57-.37,1.85,1.85,0,0,0-.72-.13,1.75,1.75,0,0,0-1,.26,2.08,2.08,0,0,0-.74.76,4.2,4.2,0,0,0-.47,1.27A8.24,8.24,0,0,0,109.56,105.94Zm4.68.09c0-.18,0-.35,0-.53s0-.34,0-.51l-4.32,3.21a4.19,4.19,0,0,0,.3.75,2.19,2.19,0,0,0,.43.59,1.82,1.82,0,0,0,.58.38,2,2,0,0,0,1.7-.12,2.08,2.08,0,0,0,.74-.76,4,4,0,0,0,.47-1.26A8.31,8.31,0,0,0,114.24,106Z" transform="translate(-43.5 -16.86)"/><path class="cls-6" d="M124.09,111.09h-6.42v-1.27h2.63v-7.45l-2.45,1.32-.5-1.15,3.25-1.71h1.21v9h2.28Z" transform="translate(-43.5 -16.86)"/><path class="cls-6" d="M132.88,111.09h-6.41v-1.27h2.63v-7.45l-2.45,1.32-.5-1.15,3.25-1.71h1.2v9h2.28Z" transform="translate(-43.5 -16.86)"/><path class="cls-6" d="M141.68,111.09h-6.41v-1.27h2.62v-7.45l-2.44,1.32-.5-1.15,3.25-1.71h1.2v9h2.28Z" transform="translate(-43.5 -16.86)"/><path class="cls-6" d="M150.8,106a8.87,8.87,0,0,1-.24,2.14,4.82,4.82,0,0,1-.71,1.66,3.36,3.36,0,0,1-1.18,1.07,3.51,3.51,0,0,1-1.66.38,3.58,3.58,0,0,1-1.49-.31,3.08,3.08,0,0,1-1.15-1,4.82,4.82,0,0,1-.74-1.63,9.65,9.65,0,0,1-.25-2.36,9.49,9.49,0,0,1,.23-2.14,5,5,0,0,1,.72-1.66,3.36,3.36,0,0,1,1.18-1.07,3.51,3.51,0,0,1,1.66-.38,3.64,3.64,0,0,1,1.49.31,3,3,0,0,1,1.15,1,4.73,4.73,0,0,1,.73,1.63A9.53,9.53,0,0,1,150.8,106Zm-6.05,0c0,.16,0,.32,0,.48s0,.32,0,.47l4.32-3.2a3.87,3.87,0,0,0-.29-.72,2.51,2.51,0,0,0-.43-.57,1.93,1.93,0,0,0-.57-.37,1.88,1.88,0,0,0-.72-.13,1.79,1.79,0,0,0-1,.26,2.16,2.16,0,0,0-.74.76,4.2,4.2,0,0,0-.46,1.27A8.24,8.24,0,0,0,144.75,105.94Zm4.67.09a4.7,4.7,0,0,0,0-.53c0-.17,0-.34,0-.51L145,108.2a4.19,4.19,0,0,0,.3.75,2.19,2.19,0,0,0,.43.59,1.85,1.85,0,0,0,1.32.52,1.78,1.78,0,0,0,1-.26,2.08,2.08,0,0,0,.74-.76,4.31,4.31,0,0,0,.47-1.26A8.35,8.35,0,0,0,149.42,106Z" transform="translate(-43.5 -16.86)"/><path class="cls-6" d="M159.6,106a8.87,8.87,0,0,1-.24,2.14,5,5,0,0,1-.71,1.66,3.44,3.44,0,0,1-1.18,1.07,3.53,3.53,0,0,1-1.66.38,3.66,3.66,0,0,1-1.5-.31,3,3,0,0,1-1.14-1,4.64,4.64,0,0,1-.74-1.63,9.61,9.61,0,0,1-.26-2.36,8.93,8.93,0,0,1,.24-2.14,5.24,5.24,0,0,1,.71-1.66,3.39,3.39,0,0,1,1.19-1.07,3.46,3.46,0,0,1,1.65-.38,3.58,3.58,0,0,1,1.49.31,2.94,2.94,0,0,1,1.15,1,4.56,4.56,0,0,1,.74,1.63A9.53,9.53,0,0,1,159.6,106Zm-6,0v.48a3.59,3.59,0,0,0,0,.47l4.32-3.2a3.89,3.89,0,0,0-.3-.72,2.25,2.25,0,0,0-.43-.57,1.7,1.7,0,0,0-.57-.37,1.81,1.81,0,0,0-.72-.13,1.78,1.78,0,0,0-1,.26,2.08,2.08,0,0,0-.74.76,4.49,4.49,0,0,0-.47,1.27A8.28,8.28,0,0,0,153.55,105.94Zm4.67.09c0-.18,0-.35,0-.53s0-.34,0-.51l-4.32,3.21a4.17,4.17,0,0,0,.29.75,2.22,2.22,0,0,0,.44.59,1.72,1.72,0,0,0,.58.38,1.7,1.7,0,0,0,.73.14,1.79,1.79,0,0,0,1-.26,2.16,2.16,0,0,0,.74-.76,4.31,4.31,0,0,0,.47-1.26A8.35,8.35,0,0,0,158.22,106Z" transform="translate(-43.5 -16.86)"/></g><g class="cls-5"><path class="cls-6" d="M62.83,125.18a9.42,9.42,0,0,1-.23,2.14,5,5,0,0,1-.72,1.66,3.36,3.36,0,0,1-1.18,1.07,3.48,3.48,0,0,1-1.66.38,3.61,3.61,0,0,1-1.49-.31,3.08,3.08,0,0,1-1.15-1,4.63,4.63,0,0,1-.73-1.63,9.15,9.15,0,0,1-.26-2.36,8.93,8.93,0,0,1,.24-2.14,4.82,4.82,0,0,1,.71-1.66,3.36,3.36,0,0,1,1.18-1.07,3.51,3.51,0,0,1,1.66-.38,3.64,3.64,0,0,1,1.49.31,3,3,0,0,1,1.15,1,4.82,4.82,0,0,1,.73,1.63A9.53,9.53,0,0,1,62.83,125.18Zm-6,0c0,.16,0,.32,0,.48s0,.32,0,.47l4.32-3.2a3.29,3.29,0,0,0-.29-.72,2.51,2.51,0,0,0-.43-.57,1.93,1.93,0,0,0-.57-.37,1.88,1.88,0,0,0-.72-.13,1.79,1.79,0,0,0-1,.26,2,2,0,0,0-.73.77,4,4,0,0,0-.47,1.26A8.24,8.24,0,0,0,56.78,125.14Zm4.67.09c0-.18,0-.35,0-.53s0-.34,0-.51l-4.32,3.21a4.19,4.19,0,0,0,.3.75,2.19,2.19,0,0,0,.43.59,1.75,1.75,0,0,0,1.32.52,1.78,1.78,0,0,0,1-.26,2.08,2.08,0,0,0,.74-.76,4.31,4.31,0,0,0,.47-1.26A8.35,8.35,0,0,0,61.45,125.23Z" transform="translate(-43.5 -16.86)"/><path class="cls-6" d="M71.63,125.18a8.87,8.87,0,0,1-.24,2.14,4.82,4.82,0,0,1-.71,1.66,3.44,3.44,0,0,1-1.18,1.07,3.51,3.51,0,0,1-1.66.38,3.58,3.58,0,0,1-1.49-.31,3,3,0,0,1-1.15-1,4.64,4.64,0,0,1-.74-1.63,9.61,9.61,0,0,1-.26-2.36,8.93,8.93,0,0,1,.24-2.14,5.24,5.24,0,0,1,.71-1.66,3.39,3.39,0,0,1,1.19-1.07,3.46,3.46,0,0,1,1.65-.38,3.66,3.66,0,0,1,1.5.31,3,3,0,0,1,1.14,1,4.64,4.64,0,0,1,.74,1.63A9.53,9.53,0,0,1,71.63,125.18Zm-6,0v.48l0,.47,4.32-3.2a3.89,3.89,0,0,0-.3-.72,2.25,2.25,0,0,0-.43-.57,1.7,1.7,0,0,0-.57-.37,2,2,0,0,0-1.68.13,2.11,2.11,0,0,0-.74.77,4.31,4.31,0,0,0-.47,1.26A8.28,8.28,0,0,0,65.58,125.14Zm4.67.09c0-.18,0-.35,0-.53s0-.34,0-.51l-4.32,3.21a4.19,4.19,0,0,0,.3.75,2.19,2.19,0,0,0,.43.59,1.91,1.91,0,0,0,.58.39,1.88,1.88,0,0,0,.74.13,1.78,1.78,0,0,0,1-.26,2.08,2.08,0,0,0,.74-.76,4.31,4.31,0,0,0,.47-1.26A8.35,8.35,0,0,0,70.25,125.23Z" transform="translate(-43.5 -16.86)"/><path class="cls-6" d="M80.42,125.18a8.89,8.89,0,0,1-.23,2.14,5,5,0,0,1-.71,1.66,3.39,3.39,0,0,1-1.19,1.07,3.48,3.48,0,0,1-1.66.38,3.64,3.64,0,0,1-1.49-.31,3.08,3.08,0,0,1-1.15-1,4.82,4.82,0,0,1-.73-1.63,9.61,9.61,0,0,1-.26-2.36,8.93,8.93,0,0,1,.24-2.14,5.24,5.24,0,0,1,.71-1.66,3.44,3.44,0,0,1,1.18-1.07,3.53,3.53,0,0,1,1.66-.38,3.61,3.61,0,0,1,1.49.31,3,3,0,0,1,1.15,1,4.82,4.82,0,0,1,.74,1.63A9.56,9.56,0,0,1,80.42,125.18Zm-6,0v.48a3.59,3.59,0,0,0,0,.47l4.32-3.2a3.89,3.89,0,0,0-.3-.72,2.25,2.25,0,0,0-.43-.57,1.93,1.93,0,0,0-.57-.37,1.81,1.81,0,0,0-.72-.13,1.78,1.78,0,0,0-1,.26,2,2,0,0,0-.74.77,4.31,4.31,0,0,0-.47,1.26A8.28,8.28,0,0,0,74.38,125.14Zm4.67.09c0-.18,0-.35,0-.53s0-.34,0-.51l-4.32,3.21a3.54,3.54,0,0,0,.29.75,2.22,2.22,0,0,0,.44.59,1.86,1.86,0,0,0,.57.39,2,2,0,0,0,.74.13,1.79,1.79,0,0,0,1-.26,2.16,2.16,0,0,0,.74-.76,4.31,4.31,0,0,0,.46-1.26A8.31,8.31,0,0,0,79.05,125.23Z" transform="translate(-43.5 -16.86)"/><path class="cls-6" d="M88.9,130.29H82.49V129h2.62v-7.45l-2.44,1.32-.5-1.15L85.42,120h1.2v9H88.9Z" transform="translate(-43.5 -16.86)"/><path class="cls-6" d="M98,125.18a8.87,8.87,0,0,1-.24,2.14,4.82,4.82,0,0,1-.71,1.66,3.44,3.44,0,0,1-1.18,1.07,3.51,3.51,0,0,1-1.66.38,3.58,3.58,0,0,1-1.49-.31,3,3,0,0,1-1.15-1,4.64,4.64,0,0,1-.74-1.63,9.65,9.65,0,0,1-.25-2.36,9,9,0,0,1,.23-2.14,5.24,5.24,0,0,1,.71-1.66,3.39,3.39,0,0,1,1.19-1.07,3.46,3.46,0,0,1,1.65-.38,3.66,3.66,0,0,1,1.5.31,3,3,0,0,1,1.14,1,4.64,4.64,0,0,1,.74,1.63A9.53,9.53,0,0,1,98,125.18Zm-6,0v.48l0,.47,4.32-3.2a3.89,3.89,0,0,0-.3-.72,2.48,2.48,0,0,0-.42-.57,1.85,1.85,0,0,0-.58-.37,2,2,0,0,0-1.68.13,2.11,2.11,0,0,0-.74.77,4.31,4.31,0,0,0-.47,1.26A8.28,8.28,0,0,0,92,125.14Zm4.67.09a4.7,4.7,0,0,0,0-.53c0-.17,0-.34,0-.51l-4.32,3.21a4.19,4.19,0,0,0,.3.75,2.19,2.19,0,0,0,.43.59,1.91,1.91,0,0,0,.58.39,1.88,1.88,0,0,0,.74.13,1.78,1.78,0,0,0,1-.26,2.08,2.08,0,0,0,.74-.76,4.31,4.31,0,0,0,.47-1.26A8.35,8.35,0,0,0,96.64,125.23Z" transform="translate(-43.5 -16.86)"/><path class="cls-6" d="M106.49,130.29h-6.41V129h2.62v-7.45l-2.44,1.32-.5-1.15L103,120h1.2v9h2.28Z" transform="translate(-43.5 -16.86)"/><path class="cls-6" d="M115.29,130.29h-6.41V129h2.62v-7.45l-2.44,1.32-.5-1.15,3.25-1.71H113v9h2.28Z" transform="translate(-43.5 -16.86)"/><path class="cls-6" d="M124.09,130.29h-6.42V129h2.63v-7.45l-2.45,1.32-.5-1.15L120.6,120h1.21v9h2.28Z" transform="translate(-43.5 -16.86)"/><path class="cls-6" d="M132.88,130.29h-6.41V129h2.63v-7.45l-2.45,1.32-.5-1.15L129.4,120h1.2v9h2.28Z" transform="translate(-43.5 -16.86)"/><path class="cls-6" d="M141.68,130.29h-6.41V129h2.62v-7.45l-2.44,1.32-.5-1.15L138.2,120h1.2v9h2.28Z" transform="translate(-43.5 -16.86)"/><path class="cls-6" d="M150.8,125.18a8.87,8.87,0,0,1-.24,2.14,4.82,4.82,0,0,1-.71,1.66,3.36,3.36,0,0,1-1.18,1.07,3.51,3.51,0,0,1-1.66.38,3.58,3.58,0,0,1-1.49-.31,3.08,3.08,0,0,1-1.15-1,4.82,4.82,0,0,1-.74-1.63,9.65,9.65,0,0,1-.25-2.36,9.49,9.49,0,0,1,.23-2.14,5,5,0,0,1,.72-1.66,3.36,3.36,0,0,1,1.18-1.07,3.51,3.51,0,0,1,1.66-.38,3.64,3.64,0,0,1,1.49.31,3,3,0,0,1,1.15,1,4.82,4.82,0,0,1,.73,1.63A9.53,9.53,0,0,1,150.8,125.18Zm-6.05,0c0,.16,0,.32,0,.48s0,.32,0,.47l4.32-3.2a3.87,3.87,0,0,0-.29-.72,2.51,2.51,0,0,0-.43-.57,1.93,1.93,0,0,0-.57-.37,1.88,1.88,0,0,0-.72-.13,1.79,1.79,0,0,0-1,.26,2.11,2.11,0,0,0-.74.77,4,4,0,0,0-.46,1.26A8.24,8.24,0,0,0,144.75,125.14Zm4.67.09a4.7,4.7,0,0,0,0-.53c0-.17,0-.34,0-.51L145,127.4a4.19,4.19,0,0,0,.3.75,2.19,2.19,0,0,0,.43.59,1.91,1.91,0,0,0,.58.39,1.88,1.88,0,0,0,.74.13,1.78,1.78,0,0,0,1-.26,2.08,2.08,0,0,0,.74-.76,4.31,4.31,0,0,0,.47-1.26A8.35,8.35,0,0,0,149.42,125.23Z" transform="translate(-43.5 -16.86)"/><path class="cls-6" d="M159.6,125.18a8.87,8.87,0,0,1-.24,2.14,5,5,0,0,1-.71,1.66,3.44,3.44,0,0,1-1.18,1.07,3.53,3.53,0,0,1-1.66.38,3.66,3.66,0,0,1-1.5-.31,3,3,0,0,1-1.14-1,4.64,4.64,0,0,1-.74-1.63,9.61,9.61,0,0,1-.26-2.36,8.93,8.93,0,0,1,.24-2.14,5.24,5.24,0,0,1,.71-1.66,3.39,3.39,0,0,1,1.19-1.07,3.46,3.46,0,0,1,1.65-.38,3.58,3.58,0,0,1,1.49.31,2.94,2.94,0,0,1,1.15,1,4.64,4.64,0,0,1,.74,1.63A9.53,9.53,0,0,1,159.6,125.18Zm-6,0v.48a3.59,3.59,0,0,0,0,.47l4.32-3.2a3.89,3.89,0,0,0-.3-.72,2.25,2.25,0,0,0-.43-.57,1.7,1.7,0,0,0-.57-.37,1.81,1.81,0,0,0-.72-.13,1.78,1.78,0,0,0-1,.26,2,2,0,0,0-.74.77,4.31,4.31,0,0,0-.47,1.26A8.28,8.28,0,0,0,153.55,125.14Zm4.67.09c0-.18,0-.35,0-.53s0-.34,0-.51l-4.32,3.21a4.17,4.17,0,0,0,.29.75,2.22,2.22,0,0,0,.44.59,1.91,1.91,0,0,0,.58.39,1.86,1.86,0,0,0,.73.13,1.79,1.79,0,0,0,1-.26,2.16,2.16,0,0,0,.74-.76,4.31,4.31,0,0,0,.47-1.26A8.35,8.35,0,0,0,158.22,125.23Z" transform="translate(-43.5 -16.86)"/></g></g><path class="cls-7" d="M109.22,17.38l-4,.49a2,2,0,0,0-1.77,2v11.2a2,2,0,0,0,2,2h4a2,2,0,0,0,2-2V19.39a2,2,0,0,0-2-2Z" transform="translate(-43.5 -16.86)"/><path class="cls-8" d="M50,32.69v108l115.1,7.9v-124Zm101.56,81.85c-.37,4.78-2.44,9.28-4.9,13.4-1.48,2.49-3.25,5-5.88,6.2-4.35,2-9.33-.21-13.79-1.93a70,70,0,0,0-24.06-4.67c-8.63-.13-18,1.17-25.29-3.44-7.55-4.75-10.35-14.24-12.29-23-2.09-9.37-3.83-19.25-1.12-28.46.26-.86.56-1.71.89-2.54A26.83,26.83,0,0,1,79.25,50.58c4.48-2.24,9.49-3.15,14.31-4.54,10.27-3,20.16-8.21,30.85-8.16a31.88,31.88,0,0,1,18.39,6,12.06,12.06,0,0,1,4.72,5.53c.86,2.45.39,5.18-.23,7.73-2,8.34-5.43,16.68-4.53,25.22,1.18,11.13,9.59,21,8.75,32.18Z" transform="translate(-43.5 -16.86)"/><rect class="cls-8" x="121.5" y="7.71" width="3" height="124.02"/><polygon class="cls-9" points="128.5 142.22 0.5 134.22 0.5 124.22 128.5 132.22 128.5 142.22"/></svg>